# xmcd
#
# Track frame offsets: 
#        150
#        20915
#        32729
#        51704
#        62424
#        81601
#        90823
#        110766
#        127296
#        142502
#        168136
#
# Disc length: 2334 seconds
#
# Revision: 0
# Processed by: cddbd v1.5.2PL0 Copyright (c) Steve Scherf et al.
# Submitted via: ExactAudioCopy v0.95b3
#
DISCID=95091c0b
DTITLE=Heads Hands and Feet  - Home From Home (1970)
DYEAR=1900
DGENRE=
TTITLE0=Heads, Hands and Feet - Bringing It All On My Own Head
TTITLE1=Heads, Hands and Feet - Ain't Gonna Let It Get Me Down
TTITLE2=Heads, Hands and Feet - How Does It Feel To Be Right All The Tim
TTITLE2=e
TTITLE3=Heads, Hands and Feet - Achmed
TTITLE4=Heads, Hands and Feet - Precious Stone
TTITLE5=Heads, Hands and Feet - Friend Of A Friend
TTITLE6=Heads, Hands and Feet - Windy and Warm
TTITLE7=Heads, Hands and Feet - Who Turned Off The Dark
TTITLE8=Heads, Hands and Feet - Can You See Me
TTITLE9=Heads, Hands and Feet - Home From Home
TTITLE10=Heads, Hands and Feet - Make Me Feel Much Better
EXTD=
EXTT0=
EXTT1=
EXTT2=
EXTT3=
EXTT4=
EXTT5=
EXTT6=
EXTT7=
EXTT8=
EXTT9=
EXTT10=
PLAYORDER=
